<svg xmlns="http://www.w3.org/2000/svg" viewBox="0 0 64 64">
  <circle cx="32" cy="32" r="32" fill="#00B8BA"/>
  <path
    d="M32 20c-2.2-2-5-3-7.8-3-4.6 0-8.2 3.6-8.2 8.4 0 3 .6 6.4 1.6 10.2 1 3.9 2.2 7.6 3.4 10 .8 1.6 2 2.4 3.2 2.4 1.5 0 2.5-1.2 3-3.4l1.6-7.4c.4-1.8 1.4-2.8 3.2-2.8s2.8 1 3.2 2.8l1.6 7.4c.5 2.2 1.5 3.4 3 3.4 1.2 0 2.4-.8 3.2-2.4 1.2-2.4 2.4-6.1 3.4-10 1-3.8 1.6-7.2 1.6-10.2 0-4.8-3.6-8.4-8.2-8.4-2.8 0-5.6 1-7.8 3Z"
    fill="#F9FFFA"
  />
  <path
    d="M26.5 27c1.5 1.8 3.4 2.8 5.5 2.8s4-1 5.5-2.8"
    fill="none"
    stroke="#00B8BA"
    stroke-width="1.8"
    stroke-linecap="round"
  />
</svg>
